<svg xmlns:dc="http://purl.org/dc/elements/1.1/" xmlns:cc="http://creativecommons.org/ns#" xmlns:rdf="http://www.w3.org/1999/02/22-rdf-syntax-ns#" xmlns:svg="http://www.w3.org/2000/svg" xmlns="http://www.w3.org/2000/svg" xmlns:sodipodi="http://sodipodi.sourceforge.net/DTD/sodipodi-0.dtd" xmlns:inkscape="http://www.inkscape.org/namespaces/inkscape" version="1.1" x="0px" y="0px" viewBox="0 0 100 125"><g transform="translate(0,-952.36218)"><path style="text-indent:0;text-transform:none;direction:ltr;block-progression:tb;baseline-shift:baseline;color:#000000;enable-background:accumulate;" d="M 11.8125,967.36658 A 1.0001,1.0000371 0 0 0 11,968.36652 l 0,8.99943 -3,0 a 1.0001,1.0000371 0 0 0 -0.1875,0 A 1.0001,1.0000371 0 0 0 7,978.36589 l 0,57.99631 a 1.0001,1.0000371 0 0 0 1,1 l 84,0 a 1.0001,1.0000371 0 0 0 1,-1 l 0,-49.99681 a 1.0001,1.0000371 0 0 0 -1,-0.99994 l -3,0 0,-16.99893 a 1.0001,1.0000371 0 0 0 -1,-0.99994 l -76,0 a 1.0001,1.0000371 0 0 0 -0.1875,0 z m 1.1875,1.99988 74,0 0,15.99899 -52.375,0 -3.71875,-7.46828 A 1.0001,1.0000371 0 0 0 30,977.36595 l -17,0 0,-7.99949 z m -4,9.99937 20.375,0 3.71875,7.43703 A 1.0001,1.0000371 0 0 0 34,987.36533 l 57,0 0,47.99697 -82,0 0,-55.99647 z m 35.8125,13.99912 A 1.0001,1.0000371 0 0 0 44,994.36489 l 0,16.99891 -5,0 a 1.0001,1.0000371 0 0 0 -0.8125,1.5624 l 11,15.999 a 1.0001,1.0000371 0 0 0 1.625,0 l 11,-15.999 A 1.0001,1.0000371 0 0 0 61,1011.3638 l -5,0 0,-16.99891 a 1.0001,1.0000371 0 0 0 -1,-0.99994 l -10,0 a 1.0001,1.0000371 0 0 0 -0.1875,0 z m 1.1875,1.99987 8,0 0,16.99898 a 1.0001,1.0000371 0 0 0 1,0.9999 l 4.09375,0 -9.09375,13.2179 -9.09375,-13.2179 4.09375,0 a 1.0001,1.0000371 0 0 0 1,-0.9999 l 0,-16.99898 z" fill="#000000" fill-opacity="1" stroke="none" marker="none" visibility="visible" display="inline" overflow="visible"/></g><text x="0" y="115" fill="#000000" font-size="5px" font-weight="bold" font-family="'Helvetica Neue', Helvetica, Arial-Unicode, Arial, Sans-serif">Created by arejoenah</text><text x="0" y="120" fill="#000000" font-size="5px" font-weight="bold" font-family="'Helvetica Neue', Helvetica, Arial-Unicode, Arial, Sans-serif">from the Noun Project</text></svg>