<svg xmlns="http://www.w3.org/2000/svg" data-name="Layer 2" viewBox="0 0 32 40" x="0px" y="0px"><defs><style>.cls-1{fill:none;}</style></defs><title>coffee</title><path d="M20.678,4.76A8.1,8.1,0,0,0,9.778,8.3a8.1,8.1,0,0,0,2.31,10.12l-4.35,8.54a1.388,1.388,0,0,0-.16.65,1.445,1.445,0,0,0,.8,1.3,1.388,1.388,0,0,0,.65.16,1.454,1.454,0,0,0,1.3-.79l4.34-8.53h.01a7.979,7.979,0,0,0,2.31.34,8.235,8.235,0,0,0,4.19-1.16,8.1,8.1,0,0,0-.5-14.17ZM9.888,28.05a.955.955,0,1,1-1.7-.87l4.31-8.46a9.288,9.288,0,0,0,.82.48,7.542,7.542,0,0,0,.88.38Zm13.89-12.62a7.6,7.6,0,0,1-8.87,3.86,4.415,4.415,0,0,1-.48-.15,7.547,7.547,0,0,1-.88-.38,6.188,6.188,0,0,1-.82-.5,2.705,2.705,0,0,1-.4-.29,7.6,7.6,0,0,1,2.32-13.22,7.422,7.422,0,0,1,2.36-.38,7.605,7.605,0,0,1,6.77,11.06Z"/><path d="M20.028,6.05a6.657,6.657,0,0,0-7.18,11.13c.14.11.28.22.43.32a8.029,8.029,0,0,0,.7.41q.36.18.75.33c.16.06.34.11.51.16a6.5,6.5,0,0,0,1.76.24,6.661,6.661,0,0,0,3.03-12.59Zm2.46,8.72a6.166,6.166,0,0,1-7.31,3.09,6.517,6.517,0,0,1-.83-.33c-.05-.02-.09-.05-.14-.07a.745.745,0,0,1-.12-.07,5.414,5.414,0,0,1-.76-.48,6.153,6.153,0,0,1-1.81-7.72A6.088,6.088,0,0,1,15.1,6.13a6.013,6.013,0,0,1,1.91-.31,6.168,6.168,0,0,1,5.48,8.95Z"/><path class="cls-1" d="M19.8,6.5a6.111,6.111,0,0,0-2.79-.68,6.013,6.013,0,0,0-1.91.31,6.088,6.088,0,0,0-3.58,3.06,6.153,6.153,0,0,0,1.81,7.72,14.685,14.685,0,0,0,1.85.95,6.166,6.166,0,0,0,7.31-3.09A6.157,6.157,0,0,0,19.8,6.5Zm1.39,7.26a.25.25,0,0,1-.04.07c-.02.05-.04.09-.06.13a2.609,2.609,0,0,1-1.94,1.15,4.791,4.791,0,0,1-.67.05,6.22,6.22,0,0,1-2.43-.54,5.7,5.7,0,0,1-2.44-1.97,2.505,2.505,0,0,1-.38-2.41,2.048,2.048,0,0,1,.26-.43s.02-.01.02-.02c.02-.02.03-.04.04-.04a2.752,2.752,0,0,1,1.72-.86,5.666,5.666,0,0,1,3.1.49,5.675,5.675,0,0,1,2.45,1.97A2.475,2.475,0,0,1,21.188,13.76Z"/><path d="M20.818,11.35a5.675,5.675,0,0,0-2.45-1.97,5.666,5.666,0,0,0-3.1-.49,2.752,2.752,0,0,0-1.72.86.078.078,0,0,0-.04.04c0,.01-.02.02-.02.02a2.048,2.048,0,0,0-.26.43,2.505,2.505,0,0,0,.38,2.41,5.7,5.7,0,0,0,2.44,1.97,6.22,6.22,0,0,0,2.43.54,4.791,4.791,0,0,0,.67-.05,2.609,2.609,0,0,0,1.94-1.15c.02-.04.04-.08.06-.13a.25.25,0,0,0,.04-.07A2.475,2.475,0,0,0,20.818,11.35Zm-1.74,3.27a5.253,5.253,0,0,1-2.82-.46,5.277,5.277,0,0,1-2.24-1.78,2.48,2.48,0,0,1-.46-1.33,1.424,1.424,0,0,1,.13-.61c0-.01.01-.02.02-.03a4.267,4.267,0,0,0,3.47,2.1c2.58.01,3.29.95,3.44,1.24A2.1,2.1,0,0,1,19.078,14.62Zm1.76-1.43c-.42-.5-1.41-1.17-3.65-1.18a3.909,3.909,0,0,1-3.16-2.03,2.353,2.353,0,0,1,1.32-.6,3.856,3.856,0,0,1,.6-.04,5.528,5.528,0,0,1,2.22.5,5.244,5.244,0,0,1,2.23,1.78A2.3,2.3,0,0,1,20.838,13.19Z"/><text x="0" y="47" fill="#000000" font-size="5px" font-weight="bold" font-family="'Helvetica Neue', Helvetica, Arial-Unicode, Arial, Sans-serif">Created by SMD</text><text x="0" y="52" fill="#000000" font-size="5px" font-weight="bold" font-family="'Helvetica Neue', Helvetica, Arial-Unicode, Arial, Sans-serif">from the Noun Project</text></svg>