<svg xmlns="http://www.w3.org/2000/svg" xmlns:xlink="http://www.w3.org/1999/xlink" version="1.1" x="0px" y="0px" viewBox="0 0 100 125" style="enable-background:new 0 0 100 100;" xml:space="preserve"><path d="M45.4,5.3c2.1,1.4,3.6,3.3,4.2,5.7c0.7,2.8,0.1,5.8-1.4,8.2c-1.1,1.7-2.6,3.2-3.5,5.1c-1.4,3.1-0.7,6.6,0.4,9.7  c-1.9-1.1-3.4-3-4-5.2c-0.7-2.5-0.5-5.3,0.7-7.7c0.9-1.7,2.2-3.2,3.3-4.9C47.3,12.9,46.7,8.9,45.4,5.3z M38.6,10.5  c-0.2,1.6-1,3-2.1,4.3c-1.5,1.7-2.5,4.1-2.2,6.5c0.3,2.4,1.6,4.4,3.5,5.4c-0.8-2-1.1-3.8-0.8-5.5c0.2-1.6,1-3,2.1-4.3  c1.5-1.7,2.5-4.1,2.2-6.5c-0.3-2.4-1.6-4.4-3.5-5.4C38.5,6.9,38.8,8.8,38.6,10.5z M85.1,47.8c-2.8-2.4-6.4-3.4-10.1-2.9  c-0.4,0.1-0.8,0.1-1.2,0.2c-0.2-1.6-0.4-3.2-0.6-4.8c-0.3-1.9-2-3.3-3.9-3.3H15.1c-1.9,0-3.6,1.4-3.9,3.3c-0.6,3.7-1,7.5-1,11.3  c0,17.9,6.8,34,17.8,41.8c1.4,1,3.1,1.5,4.8,1.5h18.6c1.8,0,3.4-0.5,4.8-1.5c5.3-3.8,9.7-9.6,12.7-16.6c5.9-1.9,13.4-5,16.6-8.8  c2.7-3.2,4.1-7.1,4-10.8C89.6,53.6,87.9,50.2,85.1,47.8z M53.4,89.4c-0.5,0.4-1.2,0.6-1.9,0.6H32.9c-0.7,0-1.4-0.2-1.9-0.6  c-9.5-6.8-15.7-21.7-15.7-37.8c0-3.2,0.2-6.5,0.7-9.6h52.4c0.5,3.2,0.7,6.4,0.7,9.6C69.1,67.8,63,82.6,53.4,89.4z M81.9,64.9  c-1.8,2.2-6.1,4.3-10.6,5.9c1.8-5.9,2.8-12.4,2.8-19.2c0-0.5,0-0.9,0-1.4c2.7-0.9,5.7-0.4,7.9,1.4c1.8,1.5,2.8,3.5,2.8,5.8  C84.8,60,83.8,62.6,81.9,64.9z"/><text x="0" y="115" fill="#000000" font-size="5px" font-weight="bold" font-family="'Helvetica Neue', Helvetica, Arial-Unicode, Arial, Sans-serif">Created by Untashable</text><text x="0" y="120" fill="#000000" font-size="5px" font-weight="bold" font-family="'Helvetica Neue', Helvetica, Arial-Unicode, Arial, Sans-serif">from the Noun Project</text></svg>