<svg xmlns="http://www.w3.org/2000/svg" xmlns:xlink="http://www.w3.org/1999/xlink" version="1.1" x="0px" y="0px" viewBox="0 0 100 125" style="enable-background:new 0 0 100 100;" xml:space="preserve"><path d="M81.8,54.6c-0.1-0.1-0.2-0.2-0.3-0.2l-4.6-0.6c0-0.2,0.1-0.4,0.1-0.6c0-0.4,0.1-0.8,0.1-1.1v-0.4c0-0.3,0-0.5,0-0.8  s0-0.5,0-0.8v-0.4c0-0.1-0.1-0.3-0.2-0.3c0-0.3,0-0.6,0-0.8c0-0.2-0.1-0.5-0.1-0.8v-0.4c0-0.3-0.1-0.7-0.1-1c0-0.1,0-0.1,0-0.2  c-0.1-0.4-0.1-0.8-0.2-1.1c-0.1-0.4-0.2-0.7-0.3-1.1c-0.1-0.3-0.3-0.4-0.6-0.3L71,45c-0.5-1.6-1.1-3.1-2-4.6c-0.8-1.4-1.8-2.8-3-4  l3.3-3.3c0.2-0.2,0.2-0.5,0-0.7c-0.2-0.2-0.4-0.3-0.6-0.5l-0.3-0.3c-0.2-0.2-0.3-0.3-0.5-0.4l3-3.6c0.1-0.1,0.1-0.2,0.1-0.4  c0-0.1-0.1-0.3-0.2-0.3c-0.3-0.3-0.7-0.6-1.1-0.8l-1.1-0.8c0,0,0,0,0,0c0,0,0,0,0,0c-0.4-0.3-0.8-0.5-1.1-0.8s-0.8-0.5-1.2-0.7  c-0.4-0.2-0.8-0.5-1.2-0.7c-0.2-0.1-0.5,0-0.7,0.2l-2.2,4.2l-0.5-0.3L61.6,27c-0.3-0.1-0.5-0.2-0.8-0.4l-0.6-0.2l-0.5-0.2  c-0.1,0-0.2,0-0.3,0l-0.1,0l-0.7-0.2L58,25.7l-0.5-0.1l-0.4-0.1c-0.1,0-0.3-0.1-0.4-0.1c-0.1-0.1-0.2-0.2-0.3-0.2  c-0.2,0-0.4-0.1-0.6-0.1l0.8-4.6c0-0.1,0-0.3-0.1-0.4c-0.1-0.1-0.2-0.2-0.3-0.2h-0.1l-1.3-0.2c-0.4-0.1-1-0.1-1.3-0.1  c-0.3,0-0.6,0-0.8,0h-0.5h-0.5c-0.3,0-0.6,0-0.8,0c-0.1,0-0.2,0-0.2,0.1c-0.2,0-0.4,0-0.6,0h-0.5h-0.5c-0.3,0-0.6,0-0.9,0  c-0.3,0-0.5,0.3-0.5,0.5l0.4,4.7c-0.2,0-0.4,0-0.6,0.1c-0.3,0-0.5,0.3-0.4,0.6l0.6,4.7c-0.6,0.1-1.2,0.2-1.8,0.4L44.6,26  c0,0,0-0.1,0-0.1l-1.3-5c0,0,0,0,0,0c-0.1-0.3-0.3-0.4-0.6-0.3h-0.1c-0.4,0.1-0.8,0.2-1.2,0.3c-0.4,0.1-0.9,0.3-1.3,0.5l-0.3,0.1  c-0.4,0.1-0.7,0.2-1,0.4c-0.2,0.1-0.4,0.4-0.3,0.7l1.8,4.3L39.8,27l-0.2,0.1l-1,0.5c-0.3,0.2-0.7,0.4-1,0.6c0,0,0,0,0,0  c-0.2,0.1-0.3,0.4-0.2,0.7l2.4,4.1c-0.5,0.3-1,0.6-1.4,1l-2.9-3.8c-0.2-0.2-0.5-0.3-0.7-0.1c-0.3,0.2-0.6,0.4-0.9,0.7  c-0.3,0.2-0.6,0.5-0.8,0.8l-0.3,0.3c-0.1,0.1-0.1,0.1-0.2,0.2l-3.3-3.3c-0.1-0.1-0.2-0.1-0.4-0.1c-0.1,0-0.3,0.1-0.4,0.1l-0.6,0.6  L27.2,30l-0.6,0.7c-0.1,0.1-0.1,0.2-0.1,0.4c0,0.1,0.1,0.3,0.2,0.3l3.6,3c-0.1,0.1-0.1,0.2-0.2,0.3l-0.2,0.3  c-0.1,0.2-0.3,0.3-0.4,0.5l-4.2-2.9L25,32.9c-0.3,0.4-0.5,0.8-0.8,1.2c-0.2,0.4-0.5,0.8-0.7,1.1l-0.2,0.4l4.4,2.6l0,0l0,0l-0.3,0.6  c-0.2,0.3-0.3,0.7-0.5,1l-0.1,0.2c-0.1,0.3-0.2,0.5-0.4,0.8l-0.2,0.6l-0.2,0.5l-0.1,0.4c-0.1,0.2-0.2,0.5-0.2,0.7l-0.1,0.5l0,0  c0,0.1-0.1,0.2-0.1,0.3l-0.2,0.8c-0.1,0.2-0.2,0.5-0.2,0.7c0,0,0,0,0,0c-0.1,0.3,0.1,0.5,0.4,0.6l4.6,1c-0.2,1.2-0.4,2.3-0.4,3.5H25  c-0.3,0-0.5,0.2-0.5,0.5c0,0.2,0,0.5,0,0.7v0.4c0.1,0.4,0,0.8,0.1,1.1c0,0.4,0.1,0.8,0.1,1.1c0,0.4,0.1,0.7,0.2,1.1  c0.1,0.4,0.1,0.8,0.2,1.1c0,0.3,0.1,0.5,0.2,0.8l0.1,0.3c0,0,0,0,0,0.1l0.1,0.4c0.1,0.2,0.1,0.5,0.2,0.7c0.1,0.2,0.2,0.5,0.2,0.7  l0.1,0.4l0.2,0.5c0.1,0.2,0.2,0.4,0.2,0.6l0.4,0.8l0.1,0.2c0.2,0.3,0.4,0.8,0.5,1c0.1,0.2,0.2,0.4,0.4,0.7l0.8,1.3  c0.1,0.1,0.2,0.2,0.3,0.2H29c0.1,0,0.2,0,0.3-0.1l4-2.5c0.7,1,1.4,1.9,2.3,2.8l-3.4,3.3C32.1,68.9,32,69,32,69.1  c0,0.1,0.1,0.3,0.2,0.3l0.5,0.5c0.1,0.1,0.2,0.2,0.3,0.3c0.3,0.3,0.6,0.5,0.8,0.8c0.2,0.2,0.5,0.4,0.7,0.6c0,0.1,0.1,0.1,0.1,0.2  c0.3,0.2,0.7,0.5,0.9,0.7c0.2,0.2,0.5,0.3,0.7,0.5l0.3,0.2l1,0.6l0.5,0.3L36,78.1c0,0.1,0,0.3,0,0.4c0,0.1,0.1,0.2,0.2,0.3l0.8,0.4  l0.4,0.2l0.4,0.2c0.3,0.1,0.5,0.2,0.8,0.3c0.3,0.1,0.7,0.3,1,0.4l0.3,0.1c0.1,0,0.1,0,0.2,0c0.2,0,0.4-0.1,0.5-0.3l1.6-4.3  c0.2,0.1,0.4,0.2,0.6,0.2c0.2,0.1,0.5,0.1,0.7,0.2l0.4,0.1H44l0.3,0.1l0.7,0.2c0.4,0.1,0.8,0.2,1.2,0.2c0.3,0,0.6,0.1,0.8,0.1  c0.1,0.1,0.2,0.1,0.3,0.1c0.4,0.1,0.8,0.2,1.2,0.2h0.8h0.4h0.5h0.7c0.3,0,0.5-0.1,0.7-0.1c0.2,0,0.3,0,0.5,0h0.4H53  c0.4,0,0.7-0.1,1.1-0.1c0.4,0,0.8-0.1,1.1-0.2c0.2,0,0.4-0.1,0.6-0.1l1,4.5c0,0.1,0.1,0.2,0.2,0.3c0.1,0.1,0.2,0.1,0.3,0.1l0.1,0  c0.4-0.1,0.8-0.2,1.1-0.3l0.3-0.1c0.4-0.1,0.9-0.2,1.2-0.3c0.3-0.1,0.5-0.2,0.8-0.3l1.6,4.4c0,0.1,0.1,0.2,0.2,0.3  c0.1,0,0.1,0,0.2,0c0.1,0,0.1,0,0.2,0c0.5-0.2,1-0.4,1.5-0.6c0.5-0.2,1-0.4,1.5-0.6s1-0.5,1.4-0.7c0.2-0.1,0.3-0.4,0.2-0.7l-2.4-4.5  c0,0,0-0.1,0-0.1l-2.2-4.2c0.2-0.1,0.3-0.2,0.5-0.3l1-0.6l0.2-0.1c0.3-0.2,0.5-0.3,0.8-0.5c0.3-0.2,0.6-0.4,0.9-0.6  c0.1,0,0.1,0,0.2,0c0.3-0.2,0.5-0.4,0.9-0.7c0.3-0.2,0.6-0.5,0.9-0.8l0.3-0.3c0.2-0.2,0.3-0.3,0.5-0.5c0.2-0.2,0.3-0.4,0.5-0.5  l0.3-0.3c0.3-0.3,0.5-0.6,0.8-0.9c0.2-0.3,0.5-0.7,0.7-0.9c0.2-0.3,0.5-0.6,0.7-0.9c0.2-0.2,0.1-0.5-0.1-0.7l-3.9-2.8  c0.2-0.2,0.3-0.5,0.4-0.7l0,0l0.3-0.4c0.1-0.1,0.1-0.2,0.2-0.4l4.2,2.2c0.1,0,0.1,0.1,0.2,0.1c0.1,0,0.1,0,0.2,0  c0.1,0,0.2-0.1,0.3-0.2c0.2-0.3,0.3-0.7,0.5-1l0.1-0.3c0-0.1,0.1-0.2,0.2-0.3l4.3,1.8c0.1,0,0.1,0,0.2,0c0.2,0,0.3-0.1,0.4-0.2  c0.1-0.4,0.2-0.7,0.4-1l0.1-0.3l0.2-0.5c0.1-0.3,0.2-0.5,0.3-0.8c0.1-0.3,0.2-0.5,0.2-0.8c0-0.2,0.1-0.3,0.1-0.5l0.1-0.2  c0.1-0.3,0.2-0.6,0.2-0.9c0.1-0.1,0.1-0.1,0.1-0.2c0.1-0.4,0.1-0.8,0.2-1.1l0.1-0.4c0.1-0.4,0.2-0.8,0.2-1.2  C81.9,54.9,81.9,54.8,81.8,54.6z M75.8,47.6l0.1,0.4c0.1,0.2,0.1,0.5,0.1,0.7v0.6l-4.1,0.2c0,0,0-0.1,0-0.1v-0.3  c0-0.2,0-0.3-0.1-0.5l-0.1-0.8l0.8-0.1l3.3-0.6C75.8,47.2,75.8,47.4,75.8,47.6z M71.5,55c0-0.1,0-0.2,0-0.3c0.3-1.4,0.4-2.8,0.3-4.2  l4.1-0.2c0,0.2,0,0.4,0,0.6c0,0.2,0,0.5,0,0.7V52c0,0.4,0,0.9,0,1.1c0,0.2-0.1,0.5-0.1,0.7l-0.1,0.4c0,0.4-0.1,0.9-0.2,1.1  c0,0.2-0.1,0.4-0.1,0.6l-1.7-0.4L71.5,55z M80.7,56l-0.1,0.4c0,0.2-0.1,0.4-0.1,0.6l-4-0.9c0-0.2,0.1-0.4,0.1-0.6  c0-0.2,0.1-0.4,0.1-0.7l4,0.5C80.8,55.6,80.7,55.8,80.7,56z M75.2,44.9c0.1,0.2,0.1,0.4,0.2,0.6l0.1,0.6l-4.1,0.7  c0-0.1-0.1-0.2-0.1-0.3c0,0,0-0.1,0-0.1l-0.1-0.4L75.2,44.9z M70.1,45.7c0.9,3.4,0.9,7,0,10.4c-0.4,1.5-1,3-1.8,4.4L65.7,59  l-0.8-0.5c0.6-1.1,1-2.2,1.3-3.4c0.7-2.7,0.7-5.5,0-8.2c-0.7-2.6-2-4.9-3.8-6.8c0,0,0,0,0,0l0.5-0.5l2.4-2.4c1.1,1.1,2,2.4,2.8,3.8  C69,42.4,69.6,44,70.1,45.7z M62.5,60.1c-0.2,0.3-0.5,0.6-0.8,0.9c-0.1,0.2-0.3,0.3-0.4,0.5c-0.9,0.9-2,1.7-3.1,2.4  c-1,0.6-2,1-3.1,1.3l-1.1-4c0.7-0.2,1.4-0.5,2.1-0.9c0.8-0.5,1.6-1,2.2-1.7c0.5-0.6,1-1.2,1.4-1.8l3.6,2.1c-0.2,0.3-0.3,0.5-0.5,0.8  C62.7,59.7,62.6,59.9,62.5,60.1z M55.7,26.1l-0.9,4.1l-1.3-0.2l-0.4,0l-0.5,0h-0.6h-0.6h-0.1V28l0-2.3h0.1h0.5  c0.4,0,0.7,0.1,1.1,0.1c0.3,0,0.7,0.1,1,0.1c0.4,0,0.7,0.1,1.1,0.2h0.1c0,0,0,0,0.1,0c0,0,0.1,0,0.1,0L55.7,26.1z M33.1,60.5  c-2.4-4.4-3-9.4-1.9-14.2l4,1c-0.3,1.2-0.4,2.4-0.4,3.6c0,1.2,0.2,2.4,0.4,3.6l0,0l0.1,0.5l0.1,0.5l0,0c0.1,0.3,0.2,0.6,0.3,0.8  c0.3,0.7,0.5,1.4,0.9,2.1l-0.9,0.5L33.1,60.5z M44.2,37.5c0.3-0.2,0.7-0.3,1-0.4c0.3-0.1,0.6-0.2,0.8-0.3c0.1,0,0.2-0.1,0.3-0.1  c0.4-0.1,0.7-0.2,1.1-0.3c0,0,0,0,0,0c2.2-0.5,4.4-0.5,6.6,0l-1.1,4c-1.7-0.4-3.4-0.3-5,0.1c-0.8,0.2-1.5,0.4-2.2,0.8l-2.1-3.5  C43.9,37.7,44,37.6,44.2,37.5C44.2,37.5,44.2,37.5,44.2,37.5z M65.1,54.8c-0.3,1.1-0.7,2.1-1.2,3.1l-3.6-2.1  c0.3-0.7,0.6-1.4,0.8-2.2c0.5-1.8,0.5-3.7,0-5.6c-0.2-0.9-0.6-1.8-1.1-2.6c-0.5-0.8-1-1.6-1.7-2.2c-0.7-0.7-1.4-1.2-2.2-1.7  c-0.7-0.4-1.4-0.7-2.1-0.9l1.1-4c2.3,0.7,4.4,2,6.2,3.7c0.9,0.9,1.7,2,2.4,3.1c0.6,1.1,1.1,2.3,1.5,3.6  C65.8,49.6,65.8,52.2,65.1,54.8z M53.1,35.2c-0.4-0.1-0.8-0.1-1.3-0.1c0,0-0.1,0-0.1,0c-0.2,0-0.3,0-0.5,0v-4.1h0.1h0.3  c1.3,0.1,2.6,0.2,3.8,0.5l-0.1,0.4l-1,3.6c-0.2,0-0.4-0.1-0.6-0.1C53.6,35.3,53.4,35.2,53.1,35.2z M58.8,37.2  c-0.5-0.3-1.1-0.6-1.7-0.8c0,0-0.1,0-0.1,0c-0.4-0.2-0.9-0.3-1.3-0.5c-0.1,0-0.3-0.1-0.4-0.1l1.1-4c1.5,0.4,3,1.1,4.4,1.9  c1.4,0.8,2.6,1.7,3.8,2.8l-2.9,2.9C60.8,38.5,59.8,37.8,58.8,37.2z M42.8,58.2l-1.5,1.5l-1.4,1.4c-0.7-0.7-1.2-1.5-1.8-2.3l3.6-2  C42,57.3,42.4,57.7,42.8,58.2z M45.4,60.2c0.7,0.4,1.4,0.7,2.1,0.9l-1.1,4c-1.1-0.3-2.1-0.8-3.1-1.3c-0.3-0.2-0.7-0.4-1-0.6  c-0.2-0.1-0.3-0.2-0.5-0.3c-0.2-0.2-0.4-0.3-0.6-0.5c-0.2-0.2-0.4-0.4-0.6-0.6l2.3-2.4l0.6-0.6C44.1,59.4,44.7,59.8,45.4,60.2z   M53,61.4l1.1,4c-2.2,0.5-4.5,0.5-6.8,0l1.1-4C50,61.8,51.5,61.8,53,61.4z M39.9,56.6l-2.3,1.3c0,0,0-0.1-0.1-0.1  c-0.4-0.8-0.8-1.6-1-2.5c0,0,0-0.1,0-0.1l4-1.1c0.2,0.6,0.4,1.1,0.7,1.7L39.9,56.6z M53.3,60.3c-1.7,0.5-3.4,0.5-5.1,0l-0.5-0.1l0,0  c-0.7-0.2-1.3-0.5-1.9-0.8c-0.7-0.4-1.4-1-2-1.5l-0.2-0.2c-0.4-0.4-0.8-0.9-1.1-1.4l-0.2-0.4c-0.4-0.6-0.6-1.2-0.9-1.9l0,0l-0.1-0.5  c-0.2-0.8-0.3-1.7-0.3-2.5c0-0.9,0.1-1.7,0.4-2.5c0.2-0.8,0.6-1.6,1-2.4c0.4-0.7,0.9-1.4,1.5-2c0.6-0.6,1.3-1.1,2-1.5l0.4-0.2l0,0  c0.6-0.3,1.2-0.6,1.9-0.8c1.5-0.4,3.1-0.4,4.7-0.1l0,0l0.5,0.1c0.8,0.2,1.6,0.6,2.4,1c0.7,0.4,1.4,0.9,2,1.5c0.6,0.6,1.1,1.3,1.5,2  c0.4,0.7,0.8,1.5,1,2.3c0.4,1.6,0.4,3.4,0,5c-0.2,0.7-0.5,1.3-0.8,1.9l0,0l-0.2,0.4c-0.4,0.7-0.9,1.4-1.5,2c-0.6,0.6-1.3,1.1-2,1.6  C54.9,59.8,54.1,60.1,53.3,60.3z M50.2,30.9V35c-0.4,0-0.9,0.1-1.3,0.1c-0.1,0-0.2,0-0.3,0c-0.3,0-0.5,0.1-0.8,0.1  c-0.3,0.1-0.6,0.1-1,0.2c-0.1,0-0.2,0-0.2,0c-0.1,0-0.3,0.1-0.4,0.1c-0.3,0.1-0.7,0.2-1,0.3c-0.2,0.1-0.5,0.2-0.7,0.3  c-0.3,0.1-0.7,0.3-1,0.5c-0.1,0.1-0.2,0.1-0.4,0.2L41.6,34l-0.4-0.7c1.4-0.7,2.9-1.3,4.4-1.8C47.1,31.1,48.7,30.9,50.2,30.9z   M42.3,37.4c-0.9,0.6-1.7,1.2-2.5,1.9l-2.9-2.9c1-1,2.1-1.8,3.4-2.6L42.3,37.4z M31.4,34.7c0.2-0.3,0.6-0.7,0.7-0.8  c0.1-0.1,0.2-0.2,0.3-0.4l0.1-0.1l2.9,2.9l-0.1,0.1l-0.2,0.2L34.9,37l-0.3,0.4l-0.3,0.3L31,35.1L31.4,34.7z M33.7,61.4l1.9-1.1  l1.7-1l0,0l0,0c0.4,0.6,0.8,1.2,1.3,1.8c0.2,0.3,0.4,0.5,0.6,0.7l0,0l0.3,0.3l0.4,0.4l0,0c0.8,0.7,1.6,1.4,2.5,1.9L40.3,68  c-1.4-0.8-2.6-1.8-3.7-2.9C35.4,64,34.5,62.7,33.7,61.4z M48.3,70.9C48.3,70.8,48.3,70.8,48.3,70.9l-1-0.2l-0.5-0.1l-0.6-0.1  l-0.6-0.2c0,0-0.1,0-0.1,0c-1.5-0.4-3-1-4.4-1.8l2.1-3.6c1.1,0.6,2.2,1,3.4,1.3c2.7,0.7,5.5,0.7,8.2,0c1.2-0.3,2.3-0.8,3.4-1.3  l2.1,3.6c-1.4,0.8-2.9,1.3-4.4,1.8c-1.6,0.4-3.3,0.7-5,0.7c-0.1,0-0.3,0-0.4,0C49.8,71,49.1,70.9,48.3,70.9z M64.2,78.2L64,78.3  l-0.4,0.2c-0.2,0.1-0.3,0.1-0.4,0.2c-0.2,0.1-0.5,0.2-0.8,0.3c-0.1,0.1-0.3,0.1-0.4,0.2c-0.1,0-0.2,0.1-0.4,0.1l-1.4-3.9l0.6-0.2  l0.8-0.4l0.2-0.1l0.6-0.3l1.9,3.7C64.3,78.2,64.2,78.2,64.2,78.2z M68.2,32.7l-2.9,2.9l-0.1-0.1L65,35.3L64.7,35l-0.3-0.3l-0.7-0.6  L63.3,34c-0.2-0.1-0.3-0.2-0.5-0.4c-0.2-0.2-0.5-0.3-0.8-0.5l-0.4-0.2l2.1-3.6l0.5,0.3l0.2,0.2c0.2,0.1,0.4,0.3,0.7,0.5c0,0,0,0,0,0  l0,0c0.3,0.2,0.6,0.4,0.9,0.7c0.3,0.2,0.6,0.4,0.9,0.7c0,0,0,0,0,0c0.3,0.2,0.5,0.5,0.8,0.7l0.3,0.3L68.2,32.7z M69.9,27.3l-2.7,3.2  l-0.5-0.4l-0.5-0.4l2.4-3.4l0.7,0.5L69.9,27.3z M65.3,24.2l0.7,0.4c0.4,0.2,0.9,0.6,1.1,0.7c0.2,0.1,0.5,0.3,0.7,0.4l-2.4,3.4  l-0.2-0.2l-0.3-0.2c-0.3-0.2-0.8-0.5-1-0.6s-0.4-0.2-0.6-0.3L65.3,24.2z M60.3,27.5c0.3,0.1,0.5,0.2,0.8,0.4l0.2,0.1l1,0.5l0.5,0.3  l-2.1,3.6l-0.4-0.2c-0.3-0.1-0.6-0.3-0.8-0.4l-0.2-0.1c-0.2-0.1-0.4-0.2-0.6-0.3l-0.3-0.1l1.4-3.9L60.3,27.5z M57.3,26.5l0.5,0.1  c0.2,0,0.4,0.1,0.6,0.2c0.2,0,0.4,0.1,0.6,0.2l-1.4,3.9l-0.4-0.1l-1-0.3l-0.3-0.1l0.9-4.1l0.2,0.1L57.3,26.5z M52,20.5h0.5  c0.3,0,0.4,0,0.8,0c0.4,0,0.8,0.1,1.3,0.1l0.8,0.1l-0.7,4.1c-0.2,0-0.4-0.1-0.6-0.1c-0.4-0.1-0.8-0.1-1.2-0.1  c-0.4-0.1-0.7-0.1-1.1-0.1h-0.4c-0.1,0-0.1,0-0.2,0v-4.1h0.2H52z M48.9,20.5h0.5H50h0.3v4.2c-0.1,0-0.2,0-0.3,0h-0.5  c-0.1,0-0.2,0-0.2,0H49l-0.4-4.1L48.9,20.5z M49.5,29.9h-0.6l-0.4,0l-0.5-4.1v0c0.2,0,0.3-0.1,0.5-0.1c0,0,0.1,0,0.1,0l0,0  c0.4-0.1,0.7-0.1,1.1-0.1h0.5c0,0,0.1,0,0.1,0v4.1v0C50,29.9,49.8,29.9,49.5,29.9L49.5,29.9z M40,22.5l0.4-0.1  c0.4-0.2,0.8-0.3,1.2-0.5l0.8-0.2l1.1,4c-0.2,0.1-0.4,0.1-0.6,0.2c-0.2,0.1-0.5,0.2-0.7,0.2l-0.4,0.1l-0.5,0.2l-0.2,0.1l-1.6-3.8  L40,22.5z M39.1,28.5l1-0.5l0.2-0.1c0.2-0.1,0.4-0.2,0.7-0.3c0,0,0.1,0,0.1,0l0.6-0.2l0.4-0.2l0.4-0.1c0.2-0.1,0.4-0.2,0.6-0.2  c0.2-0.1,0.4-0.1,0.6-0.2l1.1,4l-0.4,0.1c-0.2,0.1-0.5,0.2-0.7,0.2l-0.4,0.2l-0.6,0.2c-0.3,0.1-0.6,0.2-0.9,0.4  c-0.3,0.1-0.5,0.2-0.8,0.4l-0.4,0.2l-2.1-3.6L39.1,28.5z M33.3,32.6l0.4-0.3c0.3-0.2,0.5-0.5,0.8-0.7l0.5-0.4l2.5,3.3  c-0.1,0.1-0.2,0.2-0.3,0.3L36.9,35l-0.3,0.3l-0.2,0.2l-0.1,0.1l-3-2.9L33.3,32.6z M28.1,30.7l0.3-0.3c0.1-0.1,0.2-0.3,0.4-0.4  l0.2-0.2l2.9,3c0,0.1-0.1,0.1-0.1,0.2l-0.3,0.3c-0.1,0.1-0.3,0.3-0.4,0.4L27.8,31L28.1,30.7z M26.2,44.8l0.1-0.3  c0-0.1,0.1-0.3,0.1-0.4v-0.2l4,1.2l-0.2,0.8L26.2,45C26.2,44.9,26.2,44.9,26.2,44.8z M25.5,51.5v-0.1h4.2c0,0.4,0,0.7,0.1,1.1  c0,0.1,0,0.2,0,0.3c0,0.3,0.1,0.5,0.1,0.8c0,0.1,0,0.1,0,0.2l0.1,0.9c0,0.1,0,0.3,0,0.4c0,0.1,0.1,0.3,0.1,0.5l0.1,0.4l-4,1.1  c0-0.2,0-0.2-0.1-0.6c-0.1-0.3-0.1-0.7-0.2-1.1c-0.1-0.3-0.1-0.8-0.2-1.1s-0.1-0.7-0.1-1.1s-0.1-0.7-0.1-1.1  C25.5,51.9,25.5,51.7,25.5,51.5z M29.2,64.1l-0.5-0.8c-0.1-0.2-0.2-0.3-0.3-0.6c-0.2-0.3-0.3-0.7-0.5-1l-0.1-0.3  c-0.1-0.2-0.2-0.5-0.3-0.7c-0.1-0.2-0.2-0.4-0.2-0.6L27,59.5c0-0.1-0.1-0.2-0.2-0.4c-0.1-0.2-0.1-0.5-0.2-0.6s-0.1-0.4-0.2-0.6l4-1  l0.5,1.5c0.1,0.2,0.1,0.4,0.2,0.6c0.1,0.2,0.2,0.4,0.3,0.7l0.1,0.2c0.1,0.3,0.3,0.6,0.4,0.8s0.3,0.5,0.5,0.8l0.2,0.4L29.2,64.1z   M33.7,69.5l-0.4-0.3l-0.1-0.1l2.9-2.9l0.1,0.1l0.2,0.2l0.3,0.3l0.4,0.3l0.3,0.3L35,70.6l-0.5-0.4C34.2,70,34,69.8,33.7,69.5z   M37.2,72.2l-0.3-0.2c-0.2-0.1-0.4-0.3-0.7-0.5l-0.5-0.3l1.9-2.5l0.6-0.8c0.1,0.1,0.2,0.2,0.3,0.2l0.8,0.5c0.2,0.2,0.5,0.3,0.8,0.5  l0.4,0.2l-0.4,0.8l-1.5,2.9l-0.5-0.3C37.8,72.6,37.5,72.4,37.2,72.2z M39.9,79.3c-0.2-0.1-0.5-0.2-0.8-0.3c-0.3-0.1-0.5-0.2-0.8-0.3  l-0.5-0.2l-0.4-0.2l-0.3-0.1l1.9-3.7l0.5,0.3l0.2,0.1l0.8,0.4l0.6,0.2L39.9,79.3z M43.1,75c-0.2-0.1-0.4-0.1-0.6-0.2l-0.4-0.1  l-0.5-0.2l-0.6-0.2c-0.3-0.1-0.5-0.2-0.8-0.4l-0.2-0.1l-0.5-0.2l1.9-3.7c0,0,0,0,0,0l0.3,0.1c0.3,0.2,0.6,0.3,0.9,0.4  c0.2,0.1,0.4,0.2,0.6,0.2l0.4,0.2c0.2,0.1,0.5,0.2,0.7,0.2c0.1,0.1,0.3,0.1,0.4,0.1l-1.1,4C43.5,75.1,43.3,75.1,43.1,75z M45.3,75.6  l-0.6-0.1l0.1-0.5l0.9-3.5h0.1l0.7,0.1l0.5,0.1l0.4,0L47,75.9l-0.7-0.1C45.9,75.7,45.6,75.7,45.3,75.6z M55.1,75.8L54,75.9  c-0.4,0-0.7,0.1-1.1,0.1h-0.7h-0.4c-0.2,0-0.3,0-0.5,0c-0.4,0-0.8,0-1.2,0h-0.5h-0.4h-0.8C48.4,76,48.2,76,48,76l0.5-4h0.3  c0.2,0,0.5,0,0.7,0H50c0.1,0,0.2,0,0.3,0c0.2,0,0.3,0,0.5,0c0.6,0,1.1,0,1.7-0.1c0.1,0,0.1,0,0.2,0l0.5-0.1l0.1,0  c0.4-0.1,0.8-0.1,1.3-0.2l0.3,0l0.9,4.1L55.1,75.8z M59.9,79.9c-0.4,0.1-0.8,0.2-1.1,0.3l-0.4,0.1l-0.6,0.2l-0.9-4.1l0.3-0.1  l0.4-0.1l0.4-0.1c0.2-0.1,0.4-0.1,0.7-0.2s0.4-0.1,0.6-0.2l1.4,3.9C60.4,79.8,60.2,79.8,59.9,79.9z M65.8,83.2  c-0.4,0.2-0.9,0.4-1.4,0.6c-0.3,0.1-0.7,0.3-1,0.4L62,80.3c0.2-0.1,0.5-0.2,0.8-0.3c0.3-0.1,0.5-0.2,0.8-0.4l0.5-0.2l0.4-0.2  l0.4-0.2l2,3.7L65.8,83.2z M64.5,72.1l-0.2,0.1c-0.3,0.2-0.6,0.4-0.9,0.6l-1,0.5c0,0,0,0,0,0l-1,0.5l0,0l-0.2,0.1l-0.8,0.4l0,0l0,0  l-0.6,0.2l-0.4,0.1c0,0,0,0,0,0c-0.1,0-0.2,0.1-0.4,0.1c-0.2,0.1-0.4,0.2-0.6,0.2c-0.2,0.1-0.4,0.1-0.6,0.1l-0.5,0.1l-0.4,0.1h-0.2  l-0.9-4l0.1,0l0.3-0.1h0.1l0.8-0.2l0.6-0.2l0.5-0.2l0.5-0.2c0.2-0.1,0.4-0.2,0.6-0.3l0.3-0.1c0.2-0.1,0.3-0.2,0.5-0.2l0.3-0.2  l0.8-0.5c0.3-0.1,0.5-0.3,0.8-0.5l0.3-0.2l0.4-0.3l0.3-0.2l0.8,1l1.8,2.3c-0.1,0.1-0.3,0.2-0.5,0.3C65,71.8,64.8,72,64.5,72.1z   M70.8,66.3c-0.2,0.3-0.4,0.6-0.7,0.9c-0.2,0.3-0.5,0.5-0.7,0.8l-0.3,0.3c-0.1,0.2-0.3,0.3-0.5,0.5c-0.1,0.2-0.3,0.3-0.5,0.5  l-0.3,0.3c-0.3,0.2-0.7,0.6-0.8,0.7c-0.1,0.1-0.3,0.2-0.5,0.4L66,69.9l-2-2.6l0.4-0.3l0.3-0.3c0.1-0.1,0.2-0.2,0.3-0.3l0.2-0.2  c0.2-0.1,0.3-0.3,0.5-0.4l0.4-0.5l0.2-0.2l0.3-0.3c0.1-0.1,0.1-0.1,0.3-0.3s0.4-0.5,0.6-0.7l0.2-0.2l0.1-0.1l3.4,2.4L70.8,66.3z   M64.9,65.1c-1.1,1.1-2.4,2.1-3.7,2.9l-2.1-3.6c0,0,0.1,0,0.1-0.1c0.5-0.3,0.9-0.6,1.4-1c0,0,0.1-0.1,0.1-0.1  c0.4-0.4,0.9-0.7,1.3-1.1c0.5-0.5,0.9-1,1.3-1.5c0.2-0.2,0.3-0.5,0.5-0.7c0.2-0.2,0.3-0.5,0.5-0.7l0,0l0,0l3.6,2.1  C67,62.7,66,64,64.9,65.1z M73.8,61.3l-0.1,0.3l-0.2,0.5l-3.7-1.9l0.2-0.3l0.1-0.2c0.1-0.2,0.2-0.4,0.3-0.6c0.1-0.2,0.2-0.4,0.2-0.6  l0.2-0.4c0.1-0.2,0.2-0.5,0.2-0.7s0.1-0.5,0.2-0.7l0.1-0.6l2.1,0.4l2,0.4c0,0.2-0.1,0.4-0.2,0.6l0,0.2c-0.1,0.3-0.2,0.6-0.2,0.9  c-0.1,0.2-0.2,0.5-0.2,0.6c0,0.1-0.2,0.3-0.2,0.4L74.3,60c-0.1,0.2-0.1,0.3-0.2,0.6C74,60.8,73.9,61.1,73.8,61.3z M80.1,58.6v0.2  c0,0.2-0.1,0.3-0.1,0.5s-0.1,0.5-0.2,0.8c-0.1,0.3-0.2,0.5-0.3,0.8l-0.2,0.5l-0.1,0.3L79,62.1l-3.8-1.6l0,0c0-0.1,0-0.1,0.1-0.2  l0.2-0.5c0.1-0.1,0.1-0.2,0.1-0.4c0.1-0.2,0.2-0.4,0.2-0.7c0.1-0.3,0.2-0.6,0.2-0.9l0.1-0.2c0.1-0.2,0.1-0.4,0.2-0.6l4,0.9  C80.2,58.2,80.1,58.4,80.1,58.6z"/><text x="0" y="115" fill="#000000" font-size="5px" font-weight="bold" font-family="'Helvetica Neue', Helvetica, Arial-Unicode, Arial, Sans-serif">Created by Product Pencil</text><text x="0" y="120" fill="#000000" font-size="5px" font-weight="bold" font-family="'Helvetica Neue', Helvetica, Arial-Unicode, Arial, Sans-serif">from the Noun Project</text></svg>