<svg xmlns="http://www.w3.org/2000/svg" xmlns:xlink="http://www.w3.org/1999/xlink" version="1.1" x="0px" y="0px" viewBox="0 0 100 125" style="enable-background:new 0 0 100 100;" xml:space="preserve"><path d="M65.2,78.9h-3.4v-3.5H38.2v3.5h-3.4c-2.3,0-4.1,1.8-4.1,3.9c0,2.2,1.8,3.9,4.1,3.9h30.4c2.3,0,4.1-1.8,4.1-3.9  C69.3,80.6,67.5,78.9,65.2,78.9z"/><path d="M86.9,13.3H13.1c-3.4,0-6.2,2.8-6.2,6.3v47.1c0,3.5,2.8,6.3,6.2,6.3h73.7c3.4,0,6.2-2.8,6.2-6.3V19.6  C93.1,16.1,90.3,13.3,86.9,13.3z M50,70c-1.4,0-2.6-1.2-2.6-2.6s1.2-2.6,2.6-2.6c1.4,0,2.6,1.2,2.6,2.6C52.6,68.9,51.4,70,50,70z   M87.4,62H12.6V19.6c0-0.4,0.3-0.7,0.6-0.7h73.7c0.3,0,0.6,0.3,0.6,0.7L87.4,62L87.4,62z"/><rect x="53.4" y="26.8" width="18.7" height="3"/><rect x="53.4" y="35.6" width="28.2" height="3"/><rect x="53.4" y="40.6" width="28.2" height="3"/><rect x="53.4" y="45.6" width="28.2" height="3"/><rect x="53.4" y="50.6" width="14.1" height="3"/><path d="M39,27.8c-4.9-2.3-11.6,1.2-14.9,8S22.1,50,27,52.5c4.9,2.3,11.6-1.2,14.9-8C45.3,37.7,44,30.2,39,27.8z M38.9,38.5  c-0.2,0.2-0.4,0.4-0.6,0.5c-0.2,0.1-0.5,0.4-0.7,0.5c-0.2,0.1-0.5,0.2-0.7,0.4c-0.2,0.1-0.5,0.2-0.7,0.4c-0.9,0.4-2.1,0.6-3.1,0.8  h-0.2h-0.1l-0.4,0.1c-0.2,0-0.5,0.1-0.7,0.1c-0.5,0.1-0.8,0.2-1.3,0.5c-0.5,0.1-0.8,0.4-1.2,0.6c-0.4,0.2-0.7,0.5-1.1,0.7  c-0.6,0.5-1.2,1.2-1.4,1.8c-0.4,0.7-0.5,1.4-0.5,2.1s0.1,1.3,0.2,1.9c0.1,0.2,0.1,0.6,0.2,0.8c0.1,0.2,0.1,0.5,0.2,0.7  c0.1,0.5,0.2,0.7,0.4,0.9c0.1,0.2,0.1,0.4,0.1,0.4s-0.1-0.1-0.2-0.2c-0.1-0.2-0.4-0.5-0.6-0.8c-0.1-0.2-0.2-0.4-0.4-0.6  c-0.1-0.2-0.2-0.5-0.4-0.8c-0.2-0.6-0.5-1.3-0.6-2c-0.1-0.8-0.1-1.8,0.2-2.6c0.2-0.9,0.8-1.9,1.6-2.6c0.8-0.7,1.6-1.3,2.7-1.6  c0.5-0.2,0.9-0.4,1.5-0.5c0.2-0.1,0.5-0.1,0.8-0.2l0.4-0.1h0.2H33l0,0l0,0c1.1-0.1,1.9-0.4,2.7-0.7c0.8-0.4,1.6-0.7,2.2-1.2  c0.6-0.5,1.1-1.2,1.4-1.8c0.2-0.7,0.4-1.4,0.4-2.1c0-1.4-0.4-2.6-0.6-3.4c-0.2-0.8-0.5-1.3-0.5-1.3s0.1,0.1,0.2,0.2  c0.1,0.2,0.4,0.5,0.6,0.8c0.2,0.4,0.5,0.8,0.7,1.4c0.2,0.6,0.5,1.3,0.6,2c0.1,0.8,0.1,1.6-0.1,2.6C40.2,36.9,39.7,37.8,38.9,38.5z"/><text x="0" y="115" fill="#000000" font-size="5px" font-weight="bold" font-family="'Helvetica Neue', Helvetica, Arial-Unicode, Arial, Sans-serif">Created by achmad mulyana</text><text x="0" y="120" fill="#000000" font-size="5px" font-weight="bold" font-family="'Helvetica Neue', Helvetica, Arial-Unicode, Arial, Sans-serif">from the Noun Project</text></svg>