<svg xmlns="http://www.w3.org/2000/svg" xmlns:xlink="http://www.w3.org/1999/xlink" xml:space="preserve" version="1.1" style="shape-rendering:geometricPrecision;text-rendering:geometricPrecision;image-rendering:optimizeQuality;" viewBox="0 0 847 1058.75" x="0px" y="0px" fill-rule="evenodd" clip-rule="evenodd"><defs><style type="text/css">
   
    .fil0 {fill:black}
   
  </style></defs><g><path class="fil0" d="M335 627c-105,64 -264,11 -306,-193 -68,-335 312,-419 392,-98 -93,67 -149,185 -86,291zm329 47c-311,156 -492,-205 -181,-361 311,-156 492,204 181,361zm119 -289c-108,57 -272,251 -427,201 181,-74 261,-212 427,-201zm-605 -222c26,120 171,328 82,465 -24,-194 -137,-307 -82,-465z"/></g><text x="0" y="862" fill="#000000" font-size="5px" font-weight="bold" font-family="'Helvetica Neue', Helvetica, Arial-Unicode, Arial, Sans-serif">Created by surga abdi robbani</text><text x="0" y="867" fill="#000000" font-size="5px" font-weight="bold" font-family="'Helvetica Neue', Helvetica, Arial-Unicode, Arial, Sans-serif">from the Noun Project</text></svg>